<svg width="86" height="26" viewBox="0 0 86 26" fill="none" xmlns="http://www.w3.org/2000/svg">
<path d="M5.00823 25C5.56323 25 5.84023 24.755 5.84023 24.264V16.264C5.84023 16.029 5.95723 15.912 6.19223 15.912H10.9922C13.5952 15.912 15.6912 15.277 17.2802 14.008C18.8702 12.738 19.6642 10.952 19.6642 8.64797C19.6642 7.02697 19.2542 5.66097 18.4322 4.55197C17.6112 3.44197 16.5022 2.61597 15.1042 2.07197C13.7072 1.52797 12.1232 1.25597 10.3522 1.25597H0.752234C0.411234 1.25597 0.240234 1.45897 0.240234 1.86397V24.36C0.240234 24.573 0.288234 24.733 0.384234 24.84C0.480234 24.947 0.656234 25 0.912234 25H5.00823V25ZM10.2242 11.912H6.28823C6.11823 11.912 6.00023 11.864 5.93623 11.768C5.87223 11.672 5.84023 11.518 5.84023 11.304V5.83197C5.84023 5.61897 5.88823 5.46897 5.98423 5.38397C6.08023 5.29897 6.23423 5.25597 6.44823 5.25597H10.0002C11.1952 5.25597 12.1442 5.53297 12.8482 6.08797C13.5522 6.64297 13.9042 7.46397 13.9042 8.55197C13.9042 9.59697 13.5742 10.419 12.9122 11.016C12.2512 11.613 11.3552 11.912 10.2242 11.912V11.912ZM27.8562 25C28.1762 25 28.4002 24.941 28.5282 24.824C28.6562 24.707 28.7202 24.509 28.7202 24.232V1.83197C28.7202 1.44797 28.5502 1.25597 28.2082 1.25597H23.6322C23.2912 1.25597 23.1202 1.45897 23.1202 1.86397V24.328C23.1202 24.563 23.1732 24.733 23.2802 24.84C23.3872 24.947 23.5682 25 23.8242 25H27.8562V25ZM37.1682 25C37.4032 25 37.5682 24.963 37.6642 24.888C37.7602 24.813 37.8082 24.691 37.8082 24.52V10.344C37.8082 10.237 37.8452 10.174 37.9202 10.152C37.9952 10.131 38.0752 10.173 38.1602 10.28L48.3682 24.616C48.4962 24.786 48.6132 24.893 48.7202 24.936C48.8272 24.979 48.9762 25 49.1682 25H52.4002C52.5568 25.0047 52.7099 24.9537 52.8322 24.856C52.8882 24.8126 52.9332 24.7567 52.9638 24.6928C52.9943 24.6289 53.0096 24.5588 53.0082 24.488V1.73597C53.0082 1.41597 52.8692 1.25597 52.5922 1.25597H49.0402C48.6562 1.25597 48.4642 1.44797 48.4642 1.83197V15.048C48.4642 15.283 48.4112 15.4 48.3042 15.4C48.2192 15.4 48.1122 15.315 47.9842 15.144L38.5762 1.73597C38.4262 1.52297 38.2992 1.38897 38.1922 1.33597C38.0852 1.28297 37.9042 1.25597 37.6482 1.25597H33.7762C33.3922 1.25597 33.2002 1.45897 33.2002 1.86397V24.456C33.2002 24.819 33.4132 25 33.8402 25H37.1682V25ZM67.3442 25.32C69.0082 25.32 70.3572 25.032 71.3922 24.456C72.4181 23.8873 73.3252 23.1269 74.0642 22.216C74.2142 22.046 74.3202 22.035 74.3842 22.184L75.3122 24.488C75.5042 24.829 75.7822 25 76.1442 25H77.1682C77.3182 25 77.4352 24.957 77.5202 24.872C77.5643 24.825 77.5983 24.7696 77.6203 24.7091C77.6423 24.6486 77.6518 24.5843 77.6482 24.52V13.736C77.6528 13.6306 77.6336 13.5256 77.5921 13.4286C77.5505 13.3317 77.4877 13.2453 77.4082 13.176C77.2482 13.037 77.0182 12.968 76.7202 12.968L68.1762 12.936C67.8352 12.936 67.6642 13.086 67.6642 13.384V15.784C67.6642 15.976 67.7072 16.114 67.7922 16.2C67.8772 16.285 68.0052 16.328 68.1762 16.328H72.0482C72.2832 16.328 72.4002 16.424 72.4002 16.616C72.4002 16.701 72.3902 16.766 72.3682 16.808L72.3042 17.736C72.0692 18.781 71.5682 19.651 70.8002 20.344C70.0322 21.037 69.0082 21.384 67.7282 21.384C66.0432 21.384 64.7522 20.734 63.8562 19.432C62.9602 18.131 62.5122 15.997 62.5122 13.032C62.5122 10.195 62.9392 8.12497 63.7922 6.82397C64.6452 5.52297 65.8932 4.87197 67.5362 4.87197C68.7952 4.87197 69.8192 5.23497 70.6082 5.95997C71.3982 6.68497 71.8982 7.60297 72.1122 8.71197C72.1552 8.90397 72.2082 9.03697 72.2722 9.11197C72.3362 9.18697 72.4532 9.22397 72.6242 9.22397L76.8482 8.58397C77.1252 8.56297 77.2642 8.43397 77.2642 8.19997C77.2642 8.00797 77.2432 7.84797 77.2002 7.71997C76.9872 6.54697 76.4482 5.44297 75.5842 4.40797C74.7202 3.37297 73.6002 2.53597 72.2242 1.89597C70.8482 1.25597 69.3282 0.935974 67.6642 0.935974C65.4882 0.935974 63.5682 1.43697 61.9042 2.43997C60.2402 3.44297 58.9492 4.87197 58.0322 6.72797C57.1152 8.58397 56.6562 10.749 56.6562 13.224C56.6562 15.634 57.0932 17.752 57.9682 19.576C58.8432 21.4 60.0852 22.813 61.6962 23.816C63.3062 24.819 65.1892 25.32 67.3442 25.32V25.32Z" fill="#0B0C12"/>
<path d="M85.0723 25C85.3923 25 85.6223 24.941 85.7603 24.824C85.8993 24.707 85.9683 24.509 85.9683 24.232V20.232C85.9683 19.869 85.8083 19.688 85.4883 19.688H81.1043C81.0364 19.6856 80.9687 19.6972 80.9054 19.7219C80.8421 19.7467 80.7846 19.7841 80.7363 19.832C80.6403 19.928 80.5923 20.072 80.5923 20.264V24.328C80.5923 24.776 80.8273 25 81.2963 25H85.0723V25Z" fill="#18A0FB"/>
</svg>
